{"title":"Intelligence.US.S01E12.(The Event Horizon)x264.Hdtv.Aac- Hanuman","uid":9823804,"size":227825904,"categoryP":"video","categoryS":"tv_shows","magnet":"?xt=urn:btih:2dc20e12139b2480b09177ed4ffdff368bf071b1&amp;dn=Intelligence.US.S01E12.%28The+Event+Horizon%29x264.Hdtv.Aac-+Hanuman&amp;tr=udp%3A%2F%2Ftracker.openbittorrent.com%3A80&amp;tr=udp%3A%2F%2Fopen.demonii.com%3A1337&amp;tr=udp%3A%2F%2Ftracker.coppersurfer.tk%3A6969&amp;tr=udp%3A%2F%2Fexodus.desync.com%3A6969","seeders":1,"leechers":2,"uploader":"hanuman18","files":1,"time":1395740287,"description":"&quot; Intelligence (U.S. TV series) &quot;\n\n\nS01E12 --&gt;&quot;The Event Horizon&quot;\n\n\n=================-\nMedia Info :-\n-===============\n\n\n\nFormat : MPEG-4\nFormat profile : Base Media\nCodec ID : isom\nFile size : 217 MiB\nDuration : 40mn 37s\nOverall bit rate mode : Variable\nOverall bit rate : 748 Kbps\nEncoded date : UTC 2014-03-25 06:42:09\nTagged date : UTC 2014-03-25 06:42:09\n\nVideo\nFormat : AVC\nFormat/Info : Advanced Video Codec\nFormat profile : &lt;a class=&quot;__cf_email__&quot; href=&quot;/cdn-cgi/l/email-protection&quot; data-cfemail=&quot;f6be9f919eb6bac5d8c7&quot;&gt;[email&amp;#160;protected]&lt;/a&gt;&lt;script cf-hash='f9e31' type=&quot;text/javascript&quot;&gt;\n/* &lt;![CDATA[ */!function(){try{var t=&quot;currentScript&quot;in document?document.currentScript:function(){for(var t=document.getElementsByTagName(&quot;script&quot;),e=t.length;e--;)if(t[e].getAttribute(&quot;cf-hash&quot;))return t[e]}();if(t&amp;&amp;t.previousSibling){var e,r,n,i,c=t.previousSibling,a=c.getAttribute(&quot;data-cfemail&quot;);if(a){for(e=&quot;&quot;,r=parseInt(a.substr(0,2),16),n=2;a.length-n;n+=2)i=parseInt(a.substr(n,2),16)^r,e+=String.fromCharCode(i);e=document.createTextNode(e),c.parentNode.replaceChild(e,c)}}}catch(u){}}();/* ]]&gt; */&lt;/script&gt;\nFormat settings, CABAC : Yes\nFormat settings, ReFrames : 8 frames\nCodec ID : avc1\nCodec ID/Info : Advanced Video Coding\nDuration : 40mn 37s\nBit rate : 537 Kbps\nMaximum bit rate : 5 160 Kbps\nWidth : 720 pixels\nHeight : 416 pixels\nDisplay aspect ratio : 1.731\nFrame rate mode : Constant\nFrame rate : 23.976 fps\nColor space : YUV\nChroma subsampling : 4:2:0\nBit depth : 8 bits\nScan type : Progressive\nBits/(Pixel*Frame) : 0.075\nStream size : 156 MiB (72%)\nTitle : Video\nEncoded date : UTC 2014-03-25 06:42:09\nTagged date : UTC 2014-03-25 06:42:28\n\nAudio\nFormat : AAC\nFormat/Info : Advanced Audio Codec\nFormat profile : LC\nDuration : 40mn 37s\nBit rate mode : Variable\nBit rate : 206 Kbps\nMaximum bit rate : 251 Kbps\nChannel count : 2 channels\nChannel positions : Front: L R\nSampling rate : 48.0 KHz\nCompression mode : Lossy\nStream size : 60.0 MiB (28%)\nLanguage : English\nEncoded date : UTC 2014-03-25 06:42:26\nTagged date : UTC 2014-03-25 06:42:28\n\n\n\n========================================\nFeedback Is Appreciated Do comment on Quality and size !\n========================================\n\n\n\nKeep Seeding @ Keep Downloading @ Keep Enjoying &amp; @ Keep lol\n\n\n\n","torrent":{"xt":"urn:btih:2dc20e12139b2480b09177ed4ffdff368bf071b1","amp;dn":"Intelligence.US.S01E12.%28The+Event+Horizon%29x264.Hdtv.Aac-+Hanuman","amp;tr":["udp%3A%2F%2Ftracker.openbittorrent.com%3A80","udp%3A%2F%2Fopen.demonii.com%3A1337","udp%3A%2F%2Ftracker.coppersurfer.tk%3A6969","udp%3A%2F%2Fexodus.desync.com%3A6969"],"infoHash":"2dc20e12139b2480b09177ed4ffdff368bf071b1","infoHashBuffer":{"type":"Buffer","data":[45,194,14,18,19,155,36,128,176,145,119,237,79,253,255,54,139,240,113,177]},"announce":[],"urlList":[]}}